# Blender v2.79 (sub 0) OBJ File: ''
# www.blender.org
mtllib model.mtl
o Cube_Cube.001
v -0.165572 -0.165572 0.165572
v -0.165572 0.165572 0.165572
v -0.165572 -0.165572 -0.165572
v -0.165572 0.165572 -0.165572
v 0.165572 -0.165572 0.165572
v 0.165572 0.165572 0.165572
v 0.165572 -0.165572 -0.165572
v 0.165572 0.165572 -0.165572
v -0.165572 -0.165572 1.269382
v -0.165572 0.165572 1.269382
v 0.165572 -0.165572 1.269382
v 0.165572 0.165572 1.269382
v 1.269382 -0.165572 0.165572
v 1.269382 0.165572 0.165572
v 1.269382 -0.165572 -0.165572
v 1.269382 0.165572 -0.165572
v -0.165572 1.269382 0.165572
v -0.165572 1.269382 -0.165572
v 0.165572 1.269382 0.165572
v 0.165572 1.269382 -0.165572
v -0.248357 1.269382 0.248357
v -0.248357 1.269382 -0.248357
v 0.248357 1.269382 0.248357
v 0.248357 1.269382 -0.248357
v 1.269382 -0.248357 0.248357
v 1.269382 0.248357 0.248357
v 1.269382 -0.248357 -0.248357
v 1.269382 0.248357 -0.248357
v -0.248357 -0.248357 1.269382
v -0.248357 0.248357 1.269382
v 0.248357 -0.248357 1.269382
v 0.248357 0.248357 1.269382
v 0.000000 0.000000 1.821288
v 0.000000 1.821288 0.000000
v 1.821288 0.000000 0.000000
vt 0.408696 0.097954
vt 0.503011 0.000066
vt 0.503011 0.098020
vt 0.597326 0.000000
vt 0.503011 0.098020
vt 0.188226 0.751058
vt 0.282339 0.424754
vt 0.282339 0.750575
vt 0.094315 0.326580
vt 0.408696 0.424754
vt 0.094315 0.424535
vt 0.000000 0.326515
vt 0.000000 0.424469
vt 0.094113 0.425237
vt 0.000000 0.750575
vt 0.000000 0.424754
vt 0.976421 0.775686
vt 0.858528 0.800093
vt 0.882107 0.775620
vt 0.188226 0.425237
vt 0.094113 0.750575
vt 0.094113 0.424754
vt 0.282339 0.751058
vt 0.376452 0.424754
vt 0.376452 0.750575
vt 0.408696 0.424469
vt 0.950704 0.209713
vt 0.974283 0.332172
vt 0.950704 0.307667
vt 0.597326 0.097954
vt 0.503011 0.424535
vt 0.502809 0.425018
vt 0.408696 0.750355
vt 0.408696 0.424535
vt 0.094315 0.000066
vt 0.762376 0.859343
vt 0.880269 0.834936
vt 0.856691 0.859408
vt 0.691640 0.000000
vt 0.597326 0.326581
vt 0.597326 0.000066
vt 0.596922 0.424535
vt 0.502809 0.750838
vt 0.502809 0.425018
vt 0.597326 0.653095
vt 0.691640 0.326646
vt 0.691640 0.653161
vt 0.819797 0.185142
vt 0.691640 0.123653
vt 0.819797 0.000000
vt 0.856691 0.957363
vt 0.738797 0.981769
vt 0.762376 0.957297
vt 0.880269 0.981868
vt 0.738797 0.834837
vt 0.727927 0.708826
vt 0.858528 0.653161
vt 0.858528 0.834837
vt 0.856390 0.307602
vt 0.832811 0.185142
vt 0.856390 0.209647
vt 0.974283 0.185241
vt 0.832811 0.332074
vt 0.961269 0.518378
vt 0.819797 0.518378
vt 0.888805 0.353216
vt 0.858528 0.653161
vt 0.882107 0.677666
vt 1.000000 0.653260
vt 0.976421 0.677732
vt 1.000000 0.800191
vt 0.270208 0.916220
vt 0.128737 0.916220
vt 0.201200 0.751058
vt 0.549868 0.918912
vt 0.408696 0.918912
vt 0.483456 0.750838
vt 0.832811 0.353216
vt 0.691640 0.353216
vt 0.758051 0.185142
vt 0.949576 0.180043
vt 0.819797 0.121552
vt 0.949576 0.000000
vt 0.691640 0.414705
vt 0.819797 0.353216
vt 0.819797 0.538358
vt 0.398945 0.932559
vt 0.270208 0.871633
vt 0.398945 0.751058
vt 0.738797 1.000000
vt 0.597326 1.000000
vt 0.666334 0.834837
vt 0.727927 0.834837
vt 0.597326 0.779173
vt 0.727927 0.653161
vt 0.000000 0.811983
vt 0.128737 0.751058
vt 0.128737 0.932559
vt 0.408696 0.000000
vt 0.188226 0.425237
vt 0.408696 0.326800
vt 0.094113 0.751058
vt 0.188226 0.751058
vt 0.282339 0.425237
vt 0.503011 0.424535
vt 0.597326 0.424469
vt 0.502809 0.750838
vt 0.000000 0.000000
vt 0.691640 0.326515
vt 0.596922 0.750356
vn -1.0000 0.0000 0.0000
vn 0.0000 0.0000 -1.0000
vn 0.0000 1.0000 0.0000
vn 0.0000 -1.0000 0.0000
vn 1.0000 0.0000 0.0000
vn 0.0000 0.0000 1.0000
vn 0.0000 0.4104 0.9119
vn 0.4104 0.9119 0.0000
vn 0.0000 -0.9119 0.4104
vn -0.9119 0.0000 0.4104
vn 0.0000 0.9119 0.4104
vn 0.9119 0.0000 0.4104
vn 0.0000 0.4104 -0.9119
vn 0.9119 0.4104 0.0000
vn -0.9119 0.4104 0.0000
vn 0.4104 0.0000 -0.9119
vn 0.4104 0.0000 0.9119
vn 0.4104 -0.9119 0.0000
usemtl Material
s off
f 2/1/1 3/2/1 1/3/1
f 4/4/2 7/5/2 3/2/2
f 6/6/3 16/7/3 8/8/3
f 5/9/4 9/10/4 1/11/4
f 7/12/4 1/11/4 3/13/4
f 8/14/5 19/15/5 6/16/5
f 10/17/2 32/18/2 12/19/2
f 2/20/3 12/21/3 6/22/3
f 6/23/5 11/24/5 5/25/5
f 1/3/1 10/26/1 2/1/1
f 15/27/1 25/28/1 13/29/1
f 8/30/2 15/31/2 7/5/2
f 5/32/6 14/33/6 6/34/6
f 7/12/4 13/35/4 5/9/4
f 20/36/4 23/37/4 19/38/4
f 2/39/1 18/40/1 4/41/1
f 6/42/6 17/43/6 2/44/6
f 4/45/2 20/46/2 8/47/2
f 21/48/7 23/49/7 34/50/7
f 17/51/4 22/52/4 18/53/4
f 19/38/4 21/54/4 17/51/4
f 18/53/4 24/55/4 20/36/4
f 28/56/8 26/57/8 35/58/8
f 14/59/1 28/60/1 16/61/1
f 16/61/1 27/62/1 15/27/1
f 13/29/1 26/63/1 14/59/1
f 29/64/9 31/65/9 33/66/9
f 12/19/2 31/67/2 11/68/2
f 11/68/2 29/69/2 9/70/2
f 9/70/2 30/71/2 10/17/2
f 30/72/10 29/73/10 33/74/10
f 32/75/11 30/76/11 33/77/11
f 31/78/12 32/79/12 33/80/12
f 24/81/13 22/82/13 34/83/13
f 23/84/14 24/85/14 34/86/14
f 22/87/15 21/88/15 34/89/15
f 27/90/16 28/91/16 35/92/16
f 26/93/17 25/94/17 35/95/17
f 25/96/18 27/97/18 35/98/18
f 2/1/1 4/99/1 3/2/1
f 4/4/2 8/30/2 7/5/2
f 6/6/3 14/100/3 16/7/3
f 5/9/4 11/101/4 9/10/4
f 7/12/4 5/9/4 1/11/4
f 8/14/5 20/102/5 19/15/5
f 10/17/2 30/71/2 32/18/2
f 2/20/3 10/103/3 12/21/3
f 6/23/5 12/104/5 11/24/5
f 1/3/1 9/105/1 10/26/1
f 15/27/1 27/62/1 25/28/1
f 8/30/2 16/106/2 15/31/2
f 5/32/6 13/107/6 14/33/6
f 7/12/4 15/108/4 13/35/4
f 20/36/4 24/55/4 23/37/4
f 2/39/1 17/109/1 18/40/1
f 6/42/6 19/110/6 17/43/6
f 4/45/2 18/40/2 20/46/2
f 17/51/4 21/54/4 22/52/4
f 19/38/4 23/37/4 21/54/4
f 18/53/4 22/52/4 24/55/4
f 14/59/1 26/63/1 28/60/1
f 16/61/1 28/60/1 27/62/1
f 13/29/1 25/28/1 26/63/1
f 12/19/2 32/18/2 31/67/2
f 11/68/2 31/67/2 29/69/2
f 9/70/2 29/69/2 30/71/2
